<?xml version="1.0" standalone="no"?>
<!DOCTYPE svg PUBLIC "-//W3C//DTD SVG 20010904//EN"
 "http://www.w3.org/TR/2001/REC-SVG-20010904/DTD/svg10.dtd">
<svg version="1.0" xmlns="http://www.w3.org/2000/svg"
 width="1395.000000pt" height="1395.000000pt" viewBox="0 0 1395.000000 1395.000000"
 preserveAspectRatio="xMidYMid meet">

<g transform="translate(0.000000,1395.000000) scale(0.100000,-0.100000)"
fill="#000000" stroke="none">
<path d="M6600 13344 c-25 -2 -103 -9 -175 -14 -2492 -204 -4672 -1911 -5490
-4300 -464 -1357 -453 -2866 32 -4205 259 -716 626 -1355 1118 -1945 147 -177
564 -599 735 -745 939 -800 2037 -1299 3245 -1474 334 -49 440 -55 900 -56
471 0 584 7 948 61 1149 170 2244 663 3143 1415 1011 846 1728 1962 2073 3226
139 510 208 996 218 1548 9 495 -27 910 -118 1370 -521 2615 -2652 4654 -5284
5055 -330 50 -491 62 -905 65 -217 1 -415 1 -440 -1z m310 -594 c0 -5 20 -10
45 -10 55 0 246 -36 254 -48 3 -5 33 -17 66 -27 33 -10 62 -22 65 -26 3 -3 25
-17 50 -29 25 -12 47 -26 50 -30 3 -4 24 -18 47 -29 23 -12 44 -29 47 -37 3
-8 11 -14 17 -14 15 0 193 -181 216 -221 9 -16 21 -29 24 -29 4 0 18 -21 31
-47 13 -27 26 -49 29 -51 4 -2 17 -31 30 -65 12 -34 26 -64 31 -68 10 -6 48
-154 48 -185 0 -12 6 -24 13 -26 9 -4 12 -54 12 -208 0 -154 -3 -204 -12 -207
-7 -3 -13 -14 -13 -26 0 -31 -39 -180 -48 -187 -5 -3 -19 -33 -31 -67 -13 -35
-27 -63 -31 -63 -5 0 -18 -21 -31 -47 -12 -25 -30 -54 -38 -63 -9 -9 -27 -31
-41 -49 -35 -46 -161 -173 -185 -188 -11 -7 -27 -15 -35 -19 -8 -4 -19 -14
-24 -22 -4 -7 -23 -20 -42 -28 -19 -8 -34 -18 -34 -23 0 -5 -22 -17 -50 -27
-27 -10 -50 -21 -50 -25 0 -9 -43 -25 -102 -40 -27 -6 -48 -15 -48 -19 0 -17
-209 -43 -340 -43 -137 1 -322 25 -328 43 -2 6 -11 10 -19 10 -24 0 -147 44
-161 57 -7 7 -20 13 -28 13 -8 0 -22 8 -32 18 -10 9 -38 27 -64 40 -25 12 -49
29 -52 37 -3 8 -12 15 -20 15 -8 0 -23 11 -34 25 -11 14 -24 25 -28 25 -11 0
-104 94 -104 104 0 5 -11 17 -25 28 -14 11 -25 26 -25 33 0 8 -9 19 -20 25
-11 6 -20 17 -20 24 0 7 -10 24 -23 38 -13 14 -34 52 -47 84 -13 33 -27 61
-31 64 -4 3 -17 39 -30 80 -12 41 -25 77 -29 80 -14 10 -34 187 -34 305 0 122
20 295 34 295 4 0 17 38 29 85 13 47 27 85 31 85 5 0 19 27 32 60 12 33 26 60
30 60 4 0 17 18 28 40 11 22 25 40 30 40 6 0 10 6 10 13 0 8 9 22 20 32 11 10
20 23 20 29 0 6 15 22 33 35 18 14 44 40 58 58 13 18 31 35 39 38 8 3 33 21
55 40 22 19 44 35 50 35 5 0 23 11 39 25 15 13 48 32 72 41 24 9 44 20 44 24
0 4 26 15 58 25 31 10 59 21 62 25 9 12 132 39 213 46 42 4 77 11 77 15 0 5
38 9 85 9 50 0 85 -4 85 -10z m1650 -1150 c0 -5 8 -10 19 -10 10 0 39 -9 65
-20 38 -17 45 -25 42 -43 -3 -12 -8 -39 -11 -60 -5 -32 -10 -38 -28 -35 -16 2
-23 12 -27 39 -11 65 -75 102 -106 62 -22 -29 -17 -67 14 -95 74 -67 102 -112
102 -161 0 -93 -50 -137 -151 -136 -103 1 -179 40 -179 91 0 16 5 28 10 28 6
0 10 18 10 39 0 34 3 38 20 34 11 -3 20 -14 20 -24 0 -11 5 -19 10 -19 6 0 10
-10 10 -23 0 -28 26 -67 46 -67 8 0 14 -4 14 -10 0 -18 32 -11 51 12 31 35 23
63 -31 118 -64 65 -89 131 -70 193 15 53 25 64 61 72 16 4 29 11 29 16 0 5 18
9 40 9 22 0 40 -4 40 -10z m-3556 -155 c3 -8 -4 -23 -15 -34 l-20 -18 22 -64
c12 -35 25 -66 29 -69 4 -3 17 -34 30 -70 13 -36 26 -67 30 -70 4 -3 10 -15
14 -27 7 -23 36 -33 36 -13 0 19 28 10 33 -12 8 -27 1 -38 -24 -38 -10 0 -19
-4 -19 -9 0 -5 -29 -19 -65 -31 -36 -12 -65 -26 -65 -31 0 -5 -9 -9 -20 -9
-11 0 -20 4 -20 9 0 5 -3 16 -6 25 -4 10 -1 16 9 16 37 0 37 71 0 108 -7 7
-13 22 -13 32 0 10 -3 21 -7 23 -11 7 -103 -24 -103 -34 0 -5 -6 -9 -12 -9
-23 0 -44 -19 -32 -27 6 -5 20 -33 31 -63 18 -51 21 -55 51 -55 19 0 32 -5 32
-12 0 -7 5 -13 10 -13 26 0 6 -20 -30 -31 -22 -7 -40 -16 -40 -20 0 -5 -18
-13 -40 -19 -21 -6 -46 -17 -54 -25 -21 -21 -43 -18 -49 7 -4 15 1 29 19 45
14 13 21 23 15 23 -5 0 -17 25 -26 55 -10 30 -21 55 -25 55 -3 0 -17 32 -29
70 -13 39 -27 70 -31 70 -4 0 -11 12 -14 26 -6 22 -11 25 -39 22 -28 -3 -32 0
-32 21 0 20 9 27 45 40 25 9 51 21 58 28 13 12 75 33 100 33 22 0 14 -47 -9
-53 -18 -5 -20 -11 -15 -33 4 -14 14 -33 21 -41 8 -8 15 -23 15 -35 0 -17 4
-19 32 -13 17 4 38 13 45 20 7 8 26 16 43 20 16 4 30 8 30 10 0 2 -10 29 -22
60 -19 49 -24 56 -47 55 -44 -3 -51 -1 -51 18 0 18 56 52 85 52 8 0 15 4 15
10 0 8 78 38 106 39 7 1 14 -6 18 -14z m4493 -227 c27 -13 50 -26 53 -29 3 -3
28 -16 55 -30 28 -13 52 -27 55 -30 3 -4 22 -14 43 -22 41 -18 44 -28 21 -83
-18 -43 -32 -56 -52 -49 -8 3 -16 -4 -19 -15 -3 -11 -9 -20 -13 -20 -4 0 -15
-21 -25 -47 -30 -81 -75 -95 -75 -23 0 32 -4 39 -30 50 -41 17 -53 10 -74 -49
-10 -28 -22 -51 -27 -51 -5 0 -9 -4 -9 -10 0 -5 5 -10 10 -10 6 0 20 -9 32
-20 20 -19 43 -25 78 -21 24 3 70 25 70 33 0 14 15 8 27 -10 9 -16 5 -26 -28
-63 -21 -24 -39 -48 -39 -54 0 -6 -3 -6 -8 1 -4 5 -33 21 -64 33 -32 13 -58
26 -58 30 0 4 -25 18 -55 31 -30 13 -55 27 -55 31 0 3 -18 12 -40 19 -48 16
-63 31 -54 55 5 13 14 15 36 11 41 -8 62 6 78 53 7 23 16 41 20 41 5 0 18 21
30 48 12 26 25 49 29 52 4 3 15 25 25 49 16 42 14 81 -5 81 -6 0 -6 8 1 20 13
25 9 25 67 -2z m-5636 -380 c19 -23 41 -49 50 -58 15 -16 15 -18 -3 -29 -15
-9 -26 -8 -53 5 -39 18 -82 12 -92 -12 -3 -9 4 -28 16 -44 11 -16 21 -34 21
-40 0 -5 4 -10 10 -10 5 0 16 -12 24 -27 8 -16 22 -38 33 -50 25 -29 60 -74
76 -96 10 -15 17 -16 40 -8 20 8 33 7 47 -1 18 -12 17 -14 -12 -40 -18 -15
-37 -28 -44 -28 -8 0 -18 -9 -24 -20 -6 -11 -17 -20 -25 -20 -8 0 -20 -8 -27
-17 -22 -29 -54 -43 -67 -30 -15 15 -14 27 5 48 20 22 13 44 -31 94 -19 22
-35 45 -35 52 0 7 -6 16 -13 20 -7 4 -24 25 -37 47 -28 46 -64 86 -77 86 -5 0
-18 -9 -28 -20 -14 -15 -16 -29 -11 -63 5 -34 3 -47 -10 -57 -14 -12 -18 -11
-35 10 -10 14 -19 30 -19 37 0 7 -7 16 -15 21 -9 4 -17 21 -18 38 -2 24 2 30
21 32 23 3 32 9 85 56 13 13 41 30 60 40 20 9 40 22 44 29 4 7 21 20 36 30 15
10 32 29 37 43 13 34 32 30 71 -18z m6679 -338 c0 -5 7 -10 15 -10 36 0 117
-63 178 -138 18 -24 22 -42 8 -42 -4 0 -19 -20 -32 -45 -13 -25 -29 -45 -35
-45 -23 0 -34 26 -25 57 13 44 3 79 -31 112 -37 36 -96 48 -141 30 -31 -12
-117 -93 -117 -109 0 -5 -7 -16 -16 -25 -20 -20 -25 -116 -6 -122 6 -3 12 -10
12 -16 0 -18 32 -47 52 -47 10 0 18 -4 18 -10 0 -13 47 -13 52 -1 2 5 19 11
38 13 27 2 35 -1 38 -15 4 -21 -20 -47 -68 -72 -31 -16 -34 -16 -69 2 -20 10
-40 24 -44 31 -4 6 -13 12 -19 12 -15 0 -76 66 -95 104 -22 42 -28 137 -13
191 15 52 66 111 110 126 16 6 30 15 30 20 0 5 36 9 80 9 47 0 80 -4 80 -10z
m-7648 -500 c-1 -13 -7 -27 -13 -31 -11 -6 -2 -16 127 -137 94 -87 111 -102
119 -102 3 0 20 13 36 29 22 23 29 39 29 70 0 22 -7 46 -15 55 -19 18 -19 26
-1 26 8 0 16 6 18 12 6 16 54 -35 75 -79 15 -32 15 -35 -6 -57 -11 -12 -21
-25 -21 -29 0 -8 -113 -117 -122 -117 -5 0 -8 -6 -8 -13 0 -15 -55 -77 -68
-77 -5 0 -15 6 -21 14 -10 12 -9 20 5 41 l17 26 -79 74 c-43 41 -101 95 -128
120 -27 26 -51 43 -55 38 -13 -20 -44 -23 -60 -6 -15 16 -13 20 36 68 29 28
53 56 53 62 0 16 43 43 65 40 15 -1 19 -8 17 -27z m8459 -297 c8 -16 22 -34
32 -41 9 -7 17 -19 17 -27 0 -8 8 -20 18 -27 18 -14 35 -37 54 -78 7 -14 16
-28 21 -31 5 -4 9 -27 9 -52 1 -40 -4 -51 -37 -84 -37 -36 -41 -38 -101 -36
l-63 1 -16 -53 c-8 -29 -15 -58 -15 -63 0 -6 -5 -12 -10 -14 -6 -2 -12 -21
-14 -43 -2 -22 -4 -43 -5 -47 -4 -27 -55 16 -72 60 -20 52 0 173 35 207 9 9
16 23 16 30 0 24 -23 29 -39 9 -9 -10 -29 -27 -44 -37 -23 -15 -28 -24 -24
-45 5 -28 -7 -62 -23 -62 -5 0 -16 12 -24 28 -8 15 -28 43 -45 62 -17 19 -31
40 -31 45 0 6 -9 18 -20 28 -26 22 -25 36 3 46 16 6 26 4 38 -10 17 -20 39
-25 39 -9 0 5 13 16 29 25 16 8 35 20 43 28 7 7 29 24 48 37 19 13 46 35 60
47 14 13 29 23 35 23 18 0 36 39 29 65 -12 50 33 64 57 18z m-5342 -240 c3 -6
36 -20 74 -32 37 -13 67 -26 67 -31 0 -4 27 -18 60 -30 33 -12 60 -25 60 -29
0 -3 20 -15 45 -26 25 -11 45 -22 45 -26 0 -4 20 -16 45 -28 25 -12 45 -24 45
-29 0 -4 14 -13 31 -21 16 -7 44 -26 62 -42 17 -16 37 -29 44 -29 7 0 20 -11
29 -25 9 -14 21 -25 27 -25 16 0 207 -199 207 -215 0 -8 6 -18 13 -22 7 -4 23
-25 36 -46 25 -42 130 -147 146 -147 6 0 16 -9 23 -20 7 -11 18 -20 26 -20 7
0 24 -11 38 -25 29 -29 90 -44 176 -45 54 0 63 -2 60 -17 -4 -23 -37 -31 -138
-32 -89 -1 -223 22 -228 39 -2 6 -10 10 -17 10 -18 0 -30 24 -39 71 -8 43 -40
59 -66 31 -17 -18 -18 -16 36 -76 13 -15 24 -31 24 -35 0 -4 9 -16 20 -26 18
-16 18 -20 5 -46 -8 -15 -21 -32 -28 -36 -7 -4 -24 -24 -37 -43 -14 -19 -32
-44 -42 -54 -10 -11 -18 -25 -18 -30 0 -6 -11 -24 -25 -40 -14 -16 -32 -46
-42 -67 -9 -22 -20 -39 -24 -39 -4 0 -15 -22 -25 -49 -17 -48 -53 -81 -88 -81
-9 0 -16 -4 -16 -9 0 -13 -57 -31 -100 -31 -47 0 -64 14 -85 73 -10 26 -21 47
-24 47 -13 0 -31 91 -31 154 0 68 12 112 35 130 13 10 19 34 16 64 -2 24 -40
-7 -56 -46 -9 -20 -19 -39 -24 -42 -4 -3 -18 -26 -30 -52 -13 -27 -26 -48 -29
-48 -4 0 -13 -12 -19 -27 -12 -27 -36 -57 -87 -113 -12 -14 -31 -37 -40 -52
-10 -16 -24 -28 -30 -28 -7 0 -21 -8 -32 -18 -11 -10 -41 -27 -67 -37 -26 -10
-51 -23 -55 -29 -4 -6 -23 -20 -42 -30 -34 -19 -48 -30 -100 -80 -55 -53 -100
-115 -100 -140 0 -8 -5 -16 -11 -18 -12 -4 -28 -74 -29 -125 0 -20 8 -41 20
-53 11 -11 20 -24 20 -29 0 -5 10 -15 23 -24 27 -18 97 -86 97 -95 0 -4 39 -7
87 -7 l88 0 20 -60 c11 -33 22 -62 25 -65 4 -3 17 -39 29 -80 13 -41 27 -77
31 -80 4 -3 17 -38 29 -77 13 -40 27 -73 32 -73 5 0 9 -6 9 -14 0 -20 33 -120
41 -126 4 -3 17 -38 29 -77 12 -40 26 -73 31 -73 5 0 9 -6 9 -13 0 -20 42
-151 50 -157 4 -3 18 -39 31 -80 13 -41 30 -81 36 -88 7 -7 13 -19 13 -27 0
-18 33 -119 41 -125 4 -3 15 -32 25 -65 10 -33 24 -66 31 -73 7 -7 13 -19 13
-27 0 -19 33 -119 41 -125 4 -3 17 -39 30 -80 12 -41 25 -77 29 -80 4 -3 13
-22 19 -42 7 -21 17 -41 23 -44 5 -4 151 -3 324 1 298 7 314 8 314 26 0 11 4
19 9 19 4 0 19 44 31 98 13 53 27 99 31 102 7 6 49 170 49 194 0 9 4 16 9 16
5 0 19 44 32 98 12 53 26 99 29 102 4 3 15 41 25 85 10 44 22 82 25 85 4 3 17
50 30 105 13 55 26 102 30 105 7 6 50 191 50 219 0 10 5 21 11 23 7 2 12 39
13 99 1 79 -2 98 -16 113 -10 10 -18 22 -18 27 0 21 -91 96 -132 109 -24 8
-45 17 -48 21 -6 8 -121 37 -183 45 -26 4 -47 11 -47 15 0 5 -11 9 -24 9 -45
0 -56 10 -56 51 l0 39 422 2 c414 3 423 3 427 23 2 11 6 22 10 25 4 3 16 32
26 65 10 33 21 62 25 65 12 10 49 161 37 157 -6 -2 -15 -18 -19 -36 -12 -43
-54 -88 -89 -96 -16 -4 -29 -11 -29 -16 0 -5 -15 -9 -33 -9 -75 0 -209 -33
-235 -57 -19 -18 -72 -17 -72 2 0 26 31 93 46 99 8 3 14 12 14 20 0 8 12 24
28 35 15 12 37 29 50 39 13 9 31 24 40 32 10 9 42 26 72 39 30 13 57 26 60 30
3 4 19 13 35 20 25 12 27 15 11 19 -20 4 -168 -28 -176 -39 -3 -4 -47 -17 -97
-29 -51 -12 -93 -26 -93 -31 0 -11 -97 -12 -102 -1 -1 4 -24 17 -50 29 -33 16
-49 30 -54 48 -7 30 1 69 20 87 15 15 56 125 56 150 0 9 4 18 9 20 5 2 17 53
27 113 10 61 21 112 25 115 4 3 10 30 14 61 l7 56 61 -15 c34 -8 64 -19 65
-24 2 -4 10 -8 18 -8 21 0 84 -36 99 -57 14 -17 14 -17 15 5 0 32 -24 76 -53
95 -34 22 -39 51 -13 75 53 52 77 72 84 72 4 0 30 21 57 45 28 25 53 45 56 45
3 0 21 14 40 30 19 17 42 37 53 46 34 29 134 39 258 26 62 -7 115 -17 118 -22
9 -14 137 -40 198 -40 80 0 296 31 304 44 11 17 440 15 445 -1 3 -7 21 -13 41
-13 21 0 92 -9 160 -20 89 -15 129 -26 144 -40 12 -11 27 -20 32 -20 6 0 24
-11 40 -25 16 -14 33 -25 37 -25 10 0 79 -71 79 -81 0 -4 11 -20 25 -35 14
-15 25 -33 25 -40 0 -7 6 -19 13 -26 32 -35 50 -87 55 -155 2 -40 9 -73 13
-73 5 0 9 -27 9 -60 0 -33 -4 -60 -8 -60 -5 0 -19 -61 -32 -135 -14 -74 -28
-135 -32 -135 -4 0 -8 -11 -8 -23 0 -28 -39 -150 -50 -157 -4 -3 -18 -29 -30
-57 -12 -29 -26 -53 -30 -53 -5 0 -13 -13 -18 -29 -12 -33 -26 -29 176 -52 56
-7 102 -16 102 -21 0 -4 22 -8 49 -8 27 0 53 -6 59 -12 5 -7 15 -86 22 -175 7
-90 16 -163 20 -163 4 0 10 -33 14 -72 19 -214 41 -384 50 -390 5 -4 -2 -9
-17 -12 -81 -17 -75 -19 -87 24 -6 22 -15 40 -20 40 -6 0 -10 6 -10 14 0 17
-42 119 -51 126 -4 3 -17 26 -28 52 -10 25 -23 47 -28 49 -4 2 -17 22 -28 44
-11 22 -28 46 -37 53 -10 7 -18 18 -18 24 0 6 -18 28 -40 50 -22 22 -40 44
-40 49 0 5 -4 9 -10 9 -5 0 -29 20 -53 45 -25 25 -49 45 -55 45 -5 0 -20 11
-33 23 -13 13 -46 32 -74 42 -27 11 -52 22 -55 26 -14 18 -145 39 -250 39
-107 0 -237 -21 -250 -40 -3 -4 -22 -15 -43 -23 -20 -9 -40 -23 -43 -32 -3 -8
-12 -15 -18 -15 -13 0 -86 -68 -86 -80 0 -4 -11 -19 -24 -35 -13 -15 -30 -46
-37 -69 -7 -22 -17 -44 -21 -47 -5 -3 -15 -39 -24 -80 -26 -122 -9 -420 26
-449 4 -3 17 -27 30 -54 13 -27 30 -57 38 -66 36 -43 172 -177 201 -200 18
-14 43 -34 56 -45 29 -26 54 -43 83 -55 12 -5 22 -13 22 -17 0 -5 21 -19 48
-33 26 -14 56 -33 66 -42 11 -10 25 -18 32 -18 7 0 17 -6 21 -13 4 -8 29 -24
56 -37 26 -13 47 -27 47 -30 0 -4 18 -15 40 -25 23 -10 44 -23 48 -29 4 -6 28
-21 55 -34 26 -13 47 -27 47 -32 0 -4 16 -15 35 -24 19 -9 35 -21 35 -26 0 -6
5 -10 10 -10 12 0 64 -35 92 -62 10 -10 26 -18 36 -19 9 0 328 -2 707 -2 l690
-2 3 -122 3 -123 -566 0 c-475 0 -565 -2 -565 -14 0 -7 11 -21 25 -30 14 -9
25 -22 25 -29 0 -6 11 -25 25 -41 13 -15 29 -43 35 -62 7 -19 15 -34 20 -34 4
0 18 -28 31 -62 12 -35 26 -65 30 -68 4 -3 15 -43 25 -90 27 -120 27 -419 1
-540 -10 -47 -22 -87 -26 -90 -4 -3 -16 -31 -26 -63 -10 -33 -23 -64 -29 -71
-6 -6 -20 -29 -31 -51 -11 -22 -30 -51 -42 -65 -13 -14 -23 -30 -23 -37 0 -7
-9 -17 -20 -23 -11 -6 -20 -16 -20 -23 0 -7 -35 -45 -77 -85 -43 -40 -87 -81
-99 -92 -12 -11 -26 -20 -31 -20 -6 0 -21 -10 -35 -22 -13 -13 -46 -34 -74
-47 -27 -14 -51 -27 -54 -31 -3 -4 -27 -15 -55 -25 -27 -11 -52 -22 -55 -26
-6 -8 -141 -49 -163 -49 -8 0 -17 -4 -19 -9 -1 -5 -48 -17 -103 -27 -141 -26
-545 -26 -730 0 -71 10 -132 21 -135 25 -3 4 -65 18 -137 31 -73 13 -133 27
-133 31 0 4 -20 11 -45 15 -39 5 -45 10 -45 30 0 13 -4 24 -8 24 -8 0 -34 175
-49 318 -3 34 -9 62 -13 62 -8 0 -56 468 -48 475 3 3 22 6 44 8 38 2 39 1 48
-40 5 -24 12 -43 16 -43 5 0 16 -25 25 -55 10 -30 21 -55 25 -55 4 0 18 -26
31 -57 12 -32 26 -60 30 -63 3 -3 16 -24 28 -47 12 -24 25 -43 29 -43 4 0 13
-14 21 -31 7 -17 23 -41 35 -54 11 -14 35 -41 51 -60 62 -74 112 -125 123
-125 6 0 20 -13 32 -30 12 -17 27 -30 34 -30 7 0 22 -9 34 -20 12 -12 43 -30
69 -41 26 -11 50 -24 53 -29 6 -10 127 -50 151 -50 9 0 19 -6 21 -12 6 -17
355 -19 366 -3 4 6 35 19 70 30 35 10 66 23 70 29 4 6 19 17 34 25 45 23 114
97 139 148 12 26 26 50 30 53 11 8 36 91 44 145 4 28 13 53 19 57 15 10 15
306 0 316 -6 4 -16 36 -23 71 -13 66 -29 111 -41 111 -4 0 -13 18 -20 39 -7
21 -23 51 -36 66 -13 16 -24 31 -24 34 0 6 -42 54 -110 129 -17 17 -34 32 -39
32 -4 0 -22 16 -40 35 -17 19 -35 35 -39 35 -4 0 -25 16 -47 35 -22 19 -45 35
-52 35 -6 0 -18 8 -25 18 -14 18 -62 50 -90 59 -10 3 -18 10 -18 15 0 5 -16
16 -35 24 -19 8 -35 18 -35 22 0 5 -22 19 -50 32 -27 13 -50 26 -50 30 0 4
-20 17 -45 30 -25 13 -45 27 -45 32 0 4 -344 8 -764 8 l-764 0 -18 -67 c-10
-38 -21 -70 -25 -73 -3 -3 -17 -45 -29 -95 -12 -49 -26 -92 -30 -95 -4 -3 -17
-47 -30 -97 -12 -51 -25 -93 -29 -93 -3 0 -14 -36 -25 -80 -10 -44 -21 -80
-25 -80 -3 0 -17 -47 -31 -105 -14 -58 -28 -105 -31 -105 -4 0 -17 -42 -29
-92 -13 -51 -26 -95 -30 -98 -4 -3 -17 -47 -30 -98 -12 -50 -25 -92 -29 -92
-3 0 -15 -38 -26 -85 -10 -47 -22 -85 -25 -85 -4 0 -17 -45 -30 -100 -14 -55
-27 -100 -31 -100 -3 0 -17 -44 -29 -97 -13 -54 -28 -101 -34 -105 -6 -4 -47
-8 -92 -8 l-80 0 -22 73 c-12 40 -22 78 -22 85 0 7 -4 12 -9 12 -4 0 -18 35
-31 77 -13 43 -26 80 -31 83 -4 3 -17 39 -28 79 -11 41 -24 77 -29 80 -4 3
-16 34 -27 69 -10 34 -22 62 -27 62 -4 0 -8 6 -8 13 0 21 -42 151 -51 157 -4
3 -17 39 -28 79 -11 41 -24 77 -29 80 -4 3 -19 42 -32 86 -14 44 -30 86 -37
93 -7 7 -13 19 -13 27 0 18 -33 119 -41 125 -3 3 -14 30 -24 60 -10 30 -21 57
-24 60 -4 3 -18 41 -31 85 -14 44 -29 85 -35 91 -5 6 -19 43 -30 82 -10 40
-23 72 -27 72 -4 0 -15 27 -24 60 l-17 60 -331 0 -332 0 -17 -58 c-9 -32 -17
-63 -17 -69 0 -6 -4 -13 -9 -15 -5 -1 -20 -39 -33 -83 -13 -44 -26 -81 -29
-83 -4 -2 -15 -32 -25 -67 -10 -36 -22 -65 -26 -65 -5 0 -8 -5 -8 -12 0 -19
-43 -152 -51 -158 -6 -4 -30 -81 -46 -147 -3 -13 -9 -23 -13 -23 -4 0 -17 -39
-30 -87 -13 -49 -27 -91 -32 -94 -5 -3 -18 -41 -30 -85 -12 -43 -25 -81 -29
-84 -4 -3 -14 -32 -23 -64 -8 -33 -19 -62 -24 -65 -5 -3 -19 -44 -32 -91 -12
-47 -25 -87 -29 -90 -4 -3 -18 -44 -31 -92 -12 -49 -26 -88 -29 -88 -4 0 -18
-43 -31 -95 -13 -52 -27 -95 -31 -95 -4 0 -9 -9 -12 -20 -5 -18 -14 -20 -90
-20 l-85 0 -17 75 c-9 41 -20 75 -24 75 -3 0 -17 45 -31 100 -13 55 -26 100
-30 100 -3 0 -14 34 -24 75 -10 41 -21 75 -24 75 -4 0 -18 47 -32 105 -13 58
-27 105 -30 105 -4 0 -17 43 -29 95 -13 52 -26 95 -30 95 -4 0 -18 47 -31 105
-14 58 -28 105 -32 105 -3 0 -14 35 -24 78 -10 42 -21 79 -25 82 -4 3 -17 46
-30 95 -12 50 -25 92 -29 95 -4 3 -17 48 -30 100 -13 52 -26 97 -30 100 -4 3
-13 30 -20 60 -6 30 -17 72 -23 93 l-10 37 -804 0 -804 0 3 123 3 122 758 3
c485 1 757 6 757 12 0 18 -25 105 -31 110 -4 3 -16 45 -28 95 -13 49 -26 92
-30 95 -4 3 -18 48 -30 100 -13 52 -26 97 -30 100 -4 3 -18 49 -31 103 -12 53
-26 97 -30 97 -3 0 -15 35 -25 78 -9 42 -21 79 -25 82 -4 3 -17 45 -29 95 -13
49 -26 92 -30 95 -4 3 -18 46 -31 95 -13 50 -27 92 -30 95 -4 3 -15 31 -25 63
-10 33 -23 64 -30 70 -6 7 -20 34 -31 60 -10 27 -27 53 -36 58 -10 5 -18 16
-18 24 0 7 -15 24 -32 36 -18 13 -36 28 -40 35 -4 6 -21 17 -38 24 -16 7 -30
16 -30 20 0 5 -38 18 -85 31 -47 12 -85 25 -85 29 0 4 -18 10 -40 14 -39 6
-40 7 -40 46 l0 40 550 0 549 0 -21 58 c-12 31 -26 59 -30 63 -4 3 -18 68 -30
145 -12 76 -24 141 -28 144 -3 3 -17 86 -30 185 -13 99 -27 182 -31 185 -4 3
-15 73 -25 155 -10 83 -20 152 -24 155 -4 3 -12 63 -19 133 -14 137 -9 169 31
209 10 10 18 24 18 32 0 21 108 130 150 151 18 10 40 24 48 31 7 8 33 19 58
25 24 6 44 15 44 20 0 5 11 9 25 9 14 0 25 -4 25 -10 0 -5 14 -10 30 -10 17 0
30 5 30 10 0 6 19 10 43 10 52 0 270 40 277 51 3 4 62 18 130 30 69 13 127 26
130 30 3 3 64 16 135 29 72 13 132 26 135 30 3 3 53 15 113 25 59 10 107 22
107 26 0 5 10 9 23 9 33 0 169 37 176 47 3 5 56 20 116 33 61 13 112 27 115
31 13 19 186 20 199 2z m-3827 -401 c3 -8 312 -53 361 -52 15 0 38 6 50 14 18
11 26 11 47 0 14 -8 20 -14 14 -14 -6 0 -19 -18 -29 -40 -10 -22 -21 -40 -25
-40 -3 0 -17 -22 -29 -50 -12 -27 -28 -50 -35 -50 -19 0 -35 21 -29 37 8 20
-14 33 -59 33 -33 0 -39 -4 -54 -35 -9 -19 -20 -35 -25 -35 -18 0 -8 -30 22
-62 l30 -33 23 28 c21 27 24 27 40 12 20 -20 20 -29 2 -47 -7 -8 -24 -34 -36
-58 -32 -64 -41 -70 -71 -54 -13 7 -18 13 -11 14 17 0 15 57 -3 64 -8 3 -15
12 -15 20 0 8 -10 23 -23 33 -13 10 -26 25 -30 33 -20 40 -36 63 -56 76 -11 8
-21 22 -21 29 0 8 -9 20 -20 27 -11 7 -20 18 -20 24 0 6 -9 19 -20 29 -11 10
-20 24 -20 30 0 7 -6 15 -14 18 -9 3 -12 15 -9 31 4 21 11 26 33 26 16 0 30
-4 32 -8z m9830 -430 c4 -2 16 -32 28 -68 12 -35 25 -64 29 -64 7 0 41 -91 41
-110 0 -5 -10 -12 -22 -16 -12 -3 -31 -15 -42 -25 -22 -21 -52 -25 -58 -8 -4
12 -117 -24 -127 -40 -12 -19 -43 -16 -51 5 -6 16 -2 28 16 48 14 14 20 26 15
26 -5 0 -12 14 -16 31 -6 27 -10 30 -33 24 -15 -4 -29 -10 -32 -15 -3 -4 -22
-15 -42 -23 -36 -15 -37 -17 -27 -49 6 -18 13 -40 16 -49 6 -22 46 -39 88 -39
30 0 35 -3 35 -24 0 -26 -16 -36 -61 -36 -16 0 -29 -4 -29 -10 0 -5 -8 -10
-18 -10 -18 0 -52 55 -52 85 0 7 -3 15 -7 17 -9 4 -43 74 -43 89 0 6 -6 16
-13 23 -7 7 -21 38 -32 69 -17 50 -17 56 -2 71 14 15 16 14 22 -4 9 -28 50
-36 91 -16 19 9 41 16 49 16 8 0 15 4 15 9 0 4 21 16 48 26 26 10 49 21 52 25
3 3 23 13 45 21 36 14 40 19 39 47 -2 24 3 32 20 34 15 3 25 -5 36 -27 8 -16
18 -31 22 -33z m-5696 -456 c-8 -20 -19 -36 -23 -36 -4 0 -19 -23 -32 -50 -14
-28 -29 -50 -33 -50 -4 0 -8 -6 -8 -14 0 -7 -11 -25 -24 -39 -13 -14 -33 -46
-46 -71 -12 -25 -25 -46 -28 -46 -4 0 -18 -21 -32 -47 -14 -26 -33 -56 -42
-65 -10 -10 -18 -24 -18 -31 0 -7 -9 -23 -20 -35 -11 -12 -24 -32 -29 -44 -8
-22 6 -99 20 -108 8 -6 28 -84 29 -112 0 -10 -4 -18 -10 -18 -8 0 -78 68 -121
119 -21 24 -59 125 -59 156 0 14 -4 25 -10 25 -5 0 -10 9 -10 20 0 11 4 20 9
20 5 0 14 12 20 28 22 56 85 124 143 154 21 11 38 24 38 29 0 5 12 12 28 15
15 4 39 13 54 20 32 17 115 98 142 140 23 35 69 85 74 80 2 -2 -4 -20 -12 -40z
m-4596 -105 c0 -5 20 -12 45 -15 38 -6 45 -11 45 -30 0 -21 8 -26 66 -40 65
-16 94 -34 94 -55 0 -6 -6 -12 -12 -12 -7 -1 -17 -2 -23 -4 -5 -1 -17 -3 -26
-3 -14 -2 -44 -70 -35 -80 7 -6 111 -32 133 -32 17 0 23 9 33 49 12 50 3 91
-20 91 -17 0 -31 39 -24 66 4 14 9 22 13 17 3 -5 27 -19 53 -32 26 -12 50 -31
53 -41 6 -20 -22 -142 -34 -150 -5 -3 -19 -48 -31 -100 -13 -52 -28 -98 -33
-102 -21 -13 -37 5 -37 42 l0 38 -82 22 c-46 12 -85 25 -88 29 -3 4 -40 15
-84 26 -74 18 -79 18 -91 2 -13 -18 -40 -23 -49 -9 -6 10 14 95 24 102 4 3 17
47 30 98 13 50 27 92 32 92 4 0 8 9 8 20 0 13 7 20 20 20 11 0 20 -4 20 -9z
m10676 -523 c1 -39 6 -73 12 -77 6 -3 16 -44 23 -91 8 -54 20 -91 31 -102 25
-25 24 -58 -2 -58 -11 0 -20 -4 -20 -8 0 -5 -25 -13 -55 -19 -51 -9 -55 -8
-61 10 -4 14 0 25 12 33 36 25 54 48 54 68 0 44 -11 48 -91 35 -41 -7 -76 -16
-79 -19 -3 -4 -39 -13 -80 -20 -102 -17 -110 -22 -103 -65 5 -32 4 -35 -20
-35 -28 0 -29 2 -48 123 -6 42 -16 77 -20 77 -5 0 -9 11 -9 24 0 17 7 25 25
28 18 4 25 1 25 -11 1 -42 12 -44 121 -26 57 10 106 21 109 25 3 4 32 11 65
16 59 9 60 10 57 39 -4 37 -33 65 -67 65 -15 0 -25 6 -25 14 0 8 -6 17 -12 19
-7 3 -1 6 15 6 15 1 27 5 27 10 0 9 99 20 110 13 3 -2 5 -35 6 -74z m-10936
-580 c1 -37 21 -53 95 -78 39 -13 72 -26 75 -30 3 -4 37 -17 75 -30 39 -13 72
-26 75 -30 3 -4 22 -13 43 -19 31 -11 37 -17 37 -41 0 -25 -4 -29 -40 -35 -22
-4 -40 -10 -40 -15 0 -4 -43 -17 -96 -30 -56 -13 -94 -26 -91 -33 2 -6 27 -19
57 -29 30 -10 56 -22 59 -26 3 -4 33 -16 66 -27 57 -19 60 -22 63 -55 l3 -35
-128 -24 c-70 -13 -130 -27 -133 -30 -3 -4 -36 -13 -75 -20 -76 -14 -95 -24
-95 -52 0 -14 -7 -19 -25 -19 -23 0 -25 3 -25 48 0 26 3 77 7 115 5 62 8 67
29 67 19 0 24 -5 24 -26 0 -25 1 -26 53 -19 28 4 54 11 57 15 3 4 30 12 60 17
l55 10 -32 13 c-18 6 -33 15 -33 19 0 3 -36 17 -80 31 -44 14 -80 28 -80 32 0
5 -7 8 -16 8 -11 0 -14 8 -12 32 3 31 5 32 88 51 47 11 87 23 90 27 3 4 22 10
42 14 38 7 62 26 34 26 -9 0 -16 4 -16 8 0 7 -70 30 -143 48 -23 5 -29 3 -34
-15 -3 -14 -13 -21 -29 -21 -23 0 -24 3 -24 68 0 91 7 112 36 112 18 0 24 -6
24 -22z m10770 -573 c0 -18 -8 -29 -27 -38 -77 -35 -111 -121 -58 -145 14 -7
30 -12 35 -12 17 0 68 57 90 100 25 48 67 89 93 90 9 0 17 5 17 10 0 6 16 10
35 10 19 0 35 -4 35 -8 0 -4 13 -13 30 -19 16 -6 33 -20 37 -30 4 -10 13 -24
20 -31 14 -15 18 -158 5 -179 -4 -6 -31 -15 -59 -19 -40 -5 -55 -3 -67 9 -21
21 -20 27 4 27 11 0 20 3 20 8 0 4 14 15 30 24 49 28 36 108 -18 108 -35 0
-44 -7 -68 -50 -10 -19 -22 -37 -25 -40 -3 -3 -14 -22 -24 -42 -9 -21 -23 -38
-31 -38 -7 0 -17 -8 -23 -17 -14 -25 -119 -25 -133 0 -5 9 -16 17 -24 17 -16
0 -44 57 -44 90 0 11 -4 20 -10 20 -5 0 -10 16 -10 35 0 19 5 35 10 35 6 0 10
11 10 24 0 35 10 56 26 56 8 0 14 4 14 9 0 6 19 12 43 14 23 2 48 4 55 5 7 1
12 -9 12 -23z"/>
<path d="M7090 11994 c0 -9 7 -14 17 -12 25 5 28 28 4 28 -12 0 -21 -6 -21
-16z"/>
<path d="M7551 11963 c-25 -8 -50 -21 -58 -28 -7 -7 -29 -19 -48 -25 -19 -6
-35 -15 -35 -18 0 -4 -27 -18 -60 -31 -33 -13 -60 -28 -60 -33 0 -13 -48 -9
-53 5 -4 10 -6 10 -6 0 -1 -7 -7 -13 -15 -13 -22 0 -120 -43 -128 -56 -4 -7
-30 -20 -58 -30 -27 -10 -50 -21 -50 -24 0 -9 -47 -30 -65 -30 -10 0 -15 11
-16 33 l-1 32 -8 -30 c-11 -43 -12 -375 -1 -375 5 0 12 41 16 90 5 64 11 90
20 90 8 0 20 7 28 15 8 8 39 24 68 36 30 11 56 24 59 28 3 3 25 15 50 26 25
11 48 23 51 27 3 5 30 17 60 28 l54 19 29 -32 c15 -18 35 -45 43 -62 9 -16 19
-32 23 -35 3 -3 17 -27 30 -55 13 -27 27 -52 30 -55 4 -3 17 -27 31 -55 13
-27 32 -57 42 -67 9 -10 17 -25 17 -33 0 -7 6 -18 14 -22 7 -4 24 -28 36 -52
12 -25 29 -51 36 -59 25 -25 15 -40 -43 -67 -24 -11 -43 -23 -43 -28 0 -4 -12
-12 -26 -17 -37 -14 -28 -46 21 -73 22 -12 42 -25 43 -29 2 -5 14 -8 27 -8 43
0 115 94 115 150 0 31 -26 111 -39 120 -5 3 -19 25 -31 50 -12 25 -26 47 -30
50 -4 3 -17 24 -29 48 -12 23 -25 42 -29 42 -4 0 -13 13 -20 29 -13 28 -46 70
-99 123 -24 24 -26 31 -17 63 7 27 19 42 48 58 22 12 48 30 58 40 10 9 23 17
28 17 6 0 28 18 49 39 48 48 60 94 39 148 -19 46 -42 55 -97 36z"/>
<path d="M6206 11804 c6 -33 71 -114 91 -114 4 0 19 -11 33 -24 51 -49 79 -74
112 -97 37 -27 49 -36 97 -79 19 -16 37 -30 41 -30 3 0 31 -22 60 -50 29 -27
57 -50 60 -50 4 0 15 -9 25 -20 10 -11 22 -20 26 -20 7 0 25 -16 94 -81 29
-27 35 -24 35 16 0 26 -9 45 -32 70 -17 19 -35 35 -39 35 -4 0 -23 15 -41 34
-18 18 -47 42 -63 52 -17 11 -40 27 -52 38 -11 10 -32 28 -46 41 -14 12 -40
33 -59 46 -18 13 -39 31 -46 41 -7 10 -19 18 -26 18 -8 0 -21 11 -30 25 -9 14
-23 25 -31 25 -8 0 -22 11 -31 25 -9 14 -22 25 -29 25 -8 0 -22 11 -33 25 -11
14 -23 25 -26 25 -9 0 -70 43 -74 53 -2 4 -8 7 -13 7 -6 0 -7 -15 -3 -36z"/>
<path d="M6210 11478 c-1 -18 0 -120 0 -225 l1 -193 -40 0 -39 0 11 -32 c7
-17 24 -39 39 -47 16 -9 28 -19 28 -23 0 -5 16 -8 35 -8 19 0 35 5 35 10 0 6
6 10 13 10 30 1 63 47 81 115 20 76 35 95 77 95 35 0 98 -27 106 -45 3 -8 11
-15 18 -15 8 0 22 -11 33 -25 11 -14 24 -25 29 -25 6 0 18 -9 28 -20 10 -11
24 -20 32 -20 7 0 13 -4 13 -10 0 -5 19 -19 43 -31 23 -12 45 -27 49 -33 11
-17 340 -15 345 2 3 6 10 12 16 12 30 1 64 48 82 115 10 39 23 75 29 82 6 7
17 20 25 29 7 8 22 13 32 11 22 -6 23 -3 6 15 -21 22 -50 96 -44 113 14 35
-29 98 -74 108 -27 7 -89 -9 -100 -26 -4 -5 -18 -10 -33 -10 l-26 -2 0 -122
c0 -70 4 -124 10 -128 6 -3 10 -26 10 -51 l0 -44 -100 0 -100 0 0 51 c0 55
-15 62 -37 18 -7 -13 -18 -28 -25 -34 -7 -5 -21 -23 -31 -38 -17 -27 -20 -28
-40 -13 -12 9 -29 19 -37 23 -8 4 -23 17 -33 30 -10 13 -23 23 -28 23 -6 0
-22 14 -36 30 -13 17 -29 30 -35 30 -6 0 -19 11 -30 25 -11 14 -24 25 -30 25
-6 0 -30 20 -54 44 -23 24 -49 46 -56 49 -7 3 -2 6 11 6 20 1 21 3 11 16 -7 8
-16 15 -20 15 -4 0 -25 17 -47 38 -70 66 -128 112 -140 112 -8 0 -13 -13 -13
-32z"/>
<path d="M6766 11427 c3 -10 9 -15 12 -12 3 3 0 11 -7 18 -10 9 -11 8 -5 -6z"/>
<path d="M6818 11382 c9 -10 19 -17 21 -16 6 5 -20 34 -30 34 -5 0 -1 -8 9
-18z"/>
<path d="M9549 11080 c-6 -16 -15 -30 -19 -30 -4 0 -13 -14 -19 -30 -9 -28 -8
-32 17 -41 14 -6 30 -16 34 -22 6 -9 8 -9 8 1 0 6 7 12 15 12 8 0 15 5 15 11
0 7 9 9 24 5 26 -6 36 7 36 48 0 22 -21 45 -59 65 -31 17 -41 13 -52 -19z"/>
<path d="M11358 9544 c-16 -8 -28 -19 -28 -24 0 -5 -8 -11 -17 -15 -10 -3 -29
-14 -42 -25 l-23 -20 23 -20 c27 -22 51 -25 82 -9 50 26 71 78 45 112 -12 14
-16 14 -40 1z"/>
<path d="M4740 8720 c0 -11 -3 -20 -8 -20 -4 0 -16 -45 -27 -100 -10 -55 -22
-100 -25 -100 -4 0 -10 -19 -14 -42 -12 -78 -39 -178 -48 -178 -4 0 -8 -6 -8
-13 0 -20 -41 -141 -50 -147 -4 -3 -15 -20 -25 -39 -16 -31 -58 -76 -196 -208
-24 -23 -52 -52 -62 -63 -18 -21 -57 -154 -57 -196 0 -12 -5 -24 -10 -26 -6
-2 -11 -24 -12 -51 -2 -37 2 -50 17 -61 11 -8 31 -23 44 -35 29 -25 94 -30 85
-6 -4 8 -12 15 -19 15 -7 0 -20 15 -29 34 -9 19 -22 36 -30 39 -38 15 -28 124
15 171 11 11 19 25 19 32 0 7 10 24 23 38 49 54 56 61 69 72 7 6 28 29 47 52
54 67 67 52 30 -34 -12 -27 -25 -51 -29 -54 -4 -3 -15 -27 -25 -55 -11 -27
-24 -53 -29 -57 -12 -8 -10 -99 2 -107 5 -3 14 -27 22 -54 7 -26 18 -51 25
-55 7 -4 17 -17 24 -29 11 -21 18 -23 106 -23 l95 0 0 -39 c0 -40 -11 -51 -50
-51 -10 0 -20 -3 -22 -8 -1 -4 -43 -17 -93 -30 -49 -12 -92 -26 -95 -30 -3 -4
-21 -16 -39 -26 -38 -21 -80 -64 -81 -83 0 -6 -6 -13 -12 -16 -15 -5 -17 -195
-2 -205 5 -4 19 -56 32 -117 12 -60 27 -111 32 -113 6 -2 10 -10 10 -18 0 -24
43 -199 51 -204 4 -3 15 -39 25 -80 9 -41 21 -77 25 -80 4 -3 17 -48 29 -100
13 -52 26 -97 30 -100 4 -3 18 -48 30 -100 13 -52 27 -97 31 -100 4 -3 17 -46
30 -95 12 -50 25 -92 29 -95 3 -3 13 -30 22 -60 l15 -55 114 -3 c63 -1 199 1
303 5 l189 8 20 70 c11 39 23 72 27 75 4 3 18 43 31 90 13 47 26 87 30 90 4 3
17 42 29 88 12 45 26 82 30 82 4 0 15 30 25 68 10 37 21 69 25 72 4 3 17 43
30 90 12 47 25 87 29 90 4 3 18 44 31 93 12 48 26 87 30 87 5 0 18 38 31 85
12 47 25 85 29 85 3 0 14 34 25 75 10 41 21 75 25 75 4 0 17 39 30 88 13 48
26 89 30 92 4 3 17 44 30 93 13 48 27 87 32 87 4 0 8 9 8 20 0 18 -7 20 -65
20 -35 0 -77 6 -92 12 -57 26 -133 131 -133 185 0 12 -4 23 -9 25 -5 2 -14 46
-20 98 -19 165 -34 265 -42 270 -4 3 -15 64 -25 135 -10 72 -22 132 -25 135
-4 3 -13 61 -19 130 -11 113 -10 185 7 295 l6 40 -22 -27 c-11 -14 -21 -35
-21 -46 0 -11 -5 -22 -12 -24 -15 -5 -18 -325 -3 -336 12 -8 42 -156 52 -249
3 -35 10 -63 14 -63 5 0 9 -11 9 -25 0 -14 -2 -25 -5 -25 -11 0 -55 24 -55 30
0 3 -30 17 -67 30 -38 13 -70 27 -74 32 -7 11 -185 48 -231 48 -21 0 -38 5
-38 10 0 6 -45 10 -115 10 -63 0 -115 -4 -115 -9 0 -4 -30 -11 -67 -14 -38 -4
-85 -9 -107 -13 -37 -7 -38 -6 -31 17 4 13 12 29 19 34 6 6 22 33 35 60 14 28
27 52 31 55 3 3 17 39 30 80 13 41 28 77 32 80 4 3 15 42 24 85 10 44 21 82
26 85 10 8 38 142 38 185 0 39 -8 65 -21 65 -5 0 -9 -9 -9 -20z"/>
<path d="M9430 8356 c-5 -15 -10 -52 -10 -82 0 -30 -4 -54 -9 -54 -4 0 -11
-64 -13 -142 -4 -103 -10 -155 -23 -185 -9 -24 -20 -43 -24 -43 -4 0 -15 -22
-25 -50 -10 -27 -21 -50 -25 -50 -3 0 -17 -27 -30 -60 -13 -33 -27 -60 -30
-60 -3 0 -15 -20 -25 -44 -14 -31 -28 -46 -51 -55 -18 -6 -45 -22 -60 -35 -15
-13 -41 -27 -58 -30 -39 -8 -191 -8 -211 0 -16 6 -23 54 -8 54 8 0 52 163 52
190 0 5 -7 10 -15 10 -8 0 -15 4 -15 8 0 12 -130 42 -184 42 -59 0 -86 24
-106 94 -7 25 -16 46 -20 46 -4 0 -15 19 -25 42 -9 24 -20 45 -23 48 -4 3 -17
26 -30 53 -13 26 -26 47 -30 47 -4 0 -18 21 -32 47 -23 43 -35 59 -88 118 -10
11 -21 28 -25 38 -7 19 -53 44 -63 34 -8 -8 15 -65 30 -75 6 -4 20 -25 31 -47
11 -22 25 -43 31 -47 6 -4 19 -29 29 -55 10 -26 21 -50 25 -53 3 -3 17 -27 30
-55 13 -27 32 -59 42 -69 10 -11 18 -25 18 -31 0 -9 20 -34 81 -101 26 -29 25
-89 -1 -111 -11 -10 -20 -23 -20 -30 0 -7 -9 -18 -20 -25 -11 -7 -20 -16 -20
-21 0 -14 -43 -68 -105 -131 l-60 -61 83 -3 83 -3 -3 -42 c-3 -37 -6 -42 -30
-45 -16 -2 -28 -7 -28 -12 0 -4 -17 -11 -37 -14 -52 -9 -147 -38 -153 -47 -3
-4 -22 -14 -42 -22 -21 -9 -38 -21 -38 -26 0 -6 -6 -11 -13 -11 -12 0 -47 -32
-101 -93 -14 -16 -33 -49 -42 -73 -9 -24 -20 -44 -24 -44 -3 0 -17 -33 -30
-72 -14 -40 -28 -76 -32 -79 -5 -3 -18 -41 -30 -85 -12 -43 -25 -81 -29 -84
-4 -3 -17 -43 -29 -90 -13 -47 -26 -87 -30 -90 -3 -3 -15 -34 -24 -70 -10 -36
-22 -67 -26 -70 -4 -3 -17 -48 -30 -100 -12 -52 -26 -97 -30 -100 -5 -3 -19
-46 -31 -95 -13 -50 -26 -92 -30 -95 -3 -3 -16 -43 -29 -90 -12 -47 -25 -87
-29 -90 -11 -8 -43 -149 -36 -160 4 -6 194 -9 549 -7 l543 2 -69 68 c-37 37
-68 71 -68 76 0 4 -9 16 -20 26 -11 10 -20 24 -20 30 0 7 -6 15 -13 18 -8 3
-22 21 -31 41 -9 20 -21 36 -25 36 -5 0 -19 28 -32 63 -12 34 -26 64 -30 67
-9 6 -39 115 -39 141 0 10 -6 19 -12 22 -10 3 -13 55 -13 217 0 162 3 214 13
218 6 2 12 11 12 20 0 28 34 162 41 162 4 0 17 29 29 65 12 36 25 65 30 65 4
0 18 21 31 48 13 26 31 53 41 60 10 7 18 18 18 23 0 12 138 149 150 149 5 0
15 8 22 18 14 18 37 35 78 54 14 7 28 18 32 24 4 6 29 19 55 29 26 10 50 22
53 26 3 4 41 18 85 31 44 12 82 25 85 29 10 12 174 39 276 46 57 3 104 10 104
15 0 4 23 8 50 8 43 0 50 3 50 20 0 33 -21 120 -29 120 -13 0 -36 81 -35 125
0 22 6 163 14 313 10 204 11 275 2 284 -8 8 -14 4 -22 -16z"/>
<path d="M5671 6228 c-1 -10 -5 -18 -9 -18 -8 0 -52 -134 -52 -158 0 -7 -4
-12 -8 -12 -8 0 -52 -134 -52 -157 0 -6 -4 -13 -9 -15 -5 -1 -20 -39 -33 -83
-12 -44 -25 -82 -29 -85 -10 -9 -29 -73 -23 -79 3 -3 107 -7 230 -9 l224 -3 0
25 c0 13 -6 31 -13 38 -7 7 -23 47 -37 88 -13 41 -27 77 -31 80 -3 3 -17 39
-30 80 -13 41 -27 77 -31 80 -4 3 -17 37 -29 75 -12 39 -25 72 -29 75 -4 3
-14 25 -23 50 -8 25 -16 37 -16 28z"/>
<path d="M4744 5353 c3 -10 12 -47 21 -83 9 -36 20 -67 24 -70 5 -3 19 -48 31
-100 13 -52 27 -97 31 -100 4 -3 18 -46 30 -95 13 -50 26 -92 30 -95 4 -3 10
-20 14 -37 7 -35 25 -55 25 -29 0 9 4 16 8 16 5 0 17 35 28 77 10 42 24 81 30
87 6 6 21 49 33 96 13 47 26 87 30 90 7 5 34 86 47 143 3 15 10 27 14 27 4 0
10 12 13 28 3 15 9 35 12 45 7 16 -7 17 -210 17 -201 0 -216 -1 -211 -17z"/>
<path d="M6773 5356 c3 -8 11 -33 17 -55 6 -23 15 -41 19 -41 5 0 11 -10 14
-22 15 -65 37 -132 44 -137 5 -3 20 -42 33 -86 13 -44 28 -82 32 -85 8 -6 48
-125 48 -142 0 -5 7 -16 15 -24 8 -9 15 -24 15 -34 0 -10 5 -22 10 -25 6 -3
10 3 10 14 0 10 4 21 9 23 5 2 20 44 32 93 13 50 26 92 30 95 3 3 16 43 29 90
12 47 25 87 29 90 4 3 18 48 31 100 12 52 26 97 31 100 4 3 11 18 14 33 l7 27
-237 0 c-202 0 -236 -2 -232 -14z"/>
<path d="M2270 8921 c0 -5 7 -14 15 -21 8 -7 15 -19 15 -26 0 -24 24 -15 37
13 7 15 12 27 10 28 -9 7 -77 12 -77 6z"/>
<path d="M11945 8502 c-22 -9 -41 -20 -43 -24 -2 -4 -10 -8 -18 -8 -11 0 -13
-7 -8 -27 9 -36 33 -54 63 -47 13 3 27 0 31 -6 6 -9 15 -7 35 6 24 15 26 23
22 56 -4 31 -27 71 -39 67 -2 -1 -21 -8 -43 -17z"/>
<path d="M1733 7993 c-16 -3 -26 -15 -33 -45 -6 -22 -9 -46 -7 -52 3 -7 31
-18 62 -26 49 -12 58 -12 66 1 14 22 11 69 -6 75 -8 4 -15 17 -15 30 0 25 -12
28 -67 17z"/>
</g>
</svg>
